<svg width="880" height="416" viewBox="0 0 880 416" fill="none" xmlns="http://www.w3.org/2000/svg">
<path d="M222 415.5C179 415.5 140.75 406.5 107.25 388.5C74.25 370.5 48 346 28.5 315C9.5 283.5 0 247.75 0 207.75C0 167.25 9.5 131.5 28.5 100.5C48 69 74.25 44.5 107.25 27C140.75 9 179 0 222 0C264.5 0 302.5 9 336 27C369.5 44.5 395.75 68.75 414.75 99.75C433.75 130.75 443.25 166.75 443.25 207.75C443.25 247.75 433.75 283.5 414.75 315C395.75 346 369.5 370.5 336 388.5C302.5 406.5 264.5 415.5 222 415.5ZM222 319.5C241.5 319.5 259 315 274.5 306C290 297 302.25 284.25 311.25 267.75C320.25 250.75 324.75 230.75 324.75 207.75C324.75 184.25 320.25 164.25 311.25 147.75C302.25 131.25 290 118.5 274.5 109.5C259 100.5 241.5 96 222 96C202.5 96 185 100.5 169.5 109.5C154 118.5 141.5 131.25 132 147.75C123 164.25 118.5 184.25 118.5 207.75C118.5 230.75 123 250.75 132 267.75C141.5 284.25 154 297 169.5 306C185 315 202.5 319.5 222 319.5Z" fill="#2DA055"/>
<path d="M586.42 411L416 5H537.406L679.171 354.401H618.845L765.889 5H879L707.826 411H586.42Z" fill="#2DA055"/>
<path d="M879.12 6L709.05 410H597L620.67 353.68H620.65L651.17 281.05L766.74 6H879.12Z" fill="#41B883"/>
</svg>
